<svg id="Calque_1" data-name="Calque 1" xmlns="http://www.w3.org/2000/svg" viewBox="0 0 393.91 116.41"><defs><style>.cls-1{fill:#f9dc00;}.cls-2{fill:#82c8b6;}.cls-3{fill:#566323;}.cls-4{fill:#53284d;}.cls-5{fill:#03b4ce;}.cls-6{fill:#f59a29;}.cls-7{fill:#d91318;}.cls-8{fill:#9c4493;}.cls-9{fill:#a9ae19;}.cls-10{fill:#d2095e;}.cls-11{fill:#12509d;}.cls-12{fill:#db72aa;}</style></defs><path d="M227.45,262.05c-.29,9.79,6,18.7,18.36,18.7,9.42,0,16-4.62,17.88-12.39h3.69c-1.95,9.8-9.62,15.06-21.57,15.06-14.48,0-22.35-9.55-22.05-21.05-.3-11.41,7-22.5,22.05-22.5,15.54,0,22.73,10.2,22,22.18Zm36.62-2.67c-.29-8.75-6.89-16.84-18.26-16.84-11.08,0-17.59,8.58-18.36,16.84Z" transform="translate(-99.81 -239.87)"/><path d="M273.31,268.6c.48,7.69,7.57,12.15,16.51,12.15,6.51,0,15.84-1.62,15.84-8.83,0-14.08-34.3-4.37-34.3-21.37,0-8.17,9.62-10.68,18.07-10.68,10.5,0,18.46,3.8,18.46,13.27H304.2c0-7.53-6.41-10.6-14.77-10.6-6.7,0-14.38,2.1-14.38,8,0,6.72,8.55,7.61,16.62,9.15,9.91,1.54,17.68,3.56,17.68,12.22,0,9-10.78,11.5-19.53,11.5-11.37,0-19.91-5.1-20.21-14.82Z" transform="translate(-99.81 -239.87)"/><path d="M318,250.39h.19c1.55-4.21,7.19-10.52,18.17-10.52,15.25,0,22.44,10.2,22.44,21.85,0,12.63-7.19,21.7-22.44,21.7-8.26,0-15.16-2.84-18.17-9.64H318v23.56h-3.7v-56.5H318Zm37.11,11.33c0-9.47-5.34-19.18-18.75-19.18s-18.27,9.31-18.27,19.18,4.18,19,18.27,19C349.28,280.75,355.11,272,355.11,261.72Z" transform="translate(-99.81 -239.87)"/><path d="M399.41,274.76c0,2.34-.09,5,3.31,5a21.33,21.33,0,0,0,2.72-.25v2.59a12.43,12.43,0,0,1-3,.33c-5.82,0-6.7-2.67-6.7-6.08v-2.18h-.19c-2.33,4.94-8.94,9.23-18.56,9.23-9.42,0-16.71-3-16.71-11.74,0-9.8,10.1-11.66,18.36-12.3,16.52-.9,17.2-1.95,17.2-8.67,0-1.86-2.53-8.17-13.89-8.17-8.94,0-14.87,3.88-15.35,11.09h-3.7c.49-9.15,7.29-13.76,19.05-13.76,8.74,0,17.48,2.18,17.48,10.84Zm-3.69-15.95c-2.82,2.83-10.88,2.35-18.07,3.24-8.84.89-13.7,3.4-13.7,9.63,0,5.1,4.28,9.07,13.12,9.07,16.81,0,18.65-12,18.65-14.17Z" transform="translate(-99.81 -239.87)"/><path d="M443.91,253.71c-.78-7.37-7.87-11.17-16.9-11.17-12.44,0-19.24,9.23-19.24,18.7,0,11.25,6.32,19.51,19.24,19.51,9.32,0,16.12-5.43,17.39-13h3.69c-1.55,10-10.4,15.63-21.08,15.63-16.23,0-22.93-10.53-22.93-22.18s8.16-21.37,22.93-21.37c10.78,0,19.53,4.45,20.59,13.84Z" transform="translate(-99.81 -239.87)"/><path d="M453.34,262.05c-.29,9.79,6,18.7,18.36,18.7,9.42,0,16-4.62,17.87-12.39h3.7c-1.95,9.8-9.62,15.06-21.57,15.06-14.48,0-22.35-9.55-22.05-21.05-.3-11.41,7-22.5,22.05-22.5,15.54,0,22.73,10.2,22,22.18ZM490,259.38c-.29-8.75-6.89-16.84-18.26-16.84-11.08,0-17.58,8.58-18.36,16.84Z" transform="translate(-99.81 -239.87)"/><path d="M126.44,312.9H118.7l-3.06,17.32c-.53,3,1.13,3.67,3.86,3.67,1.1,0,2.16-.14,3.27-.14l-1.62,9.17c-2.3.07-4.64.37-6.93.37-10.7,0-12.87-3.16-11.06-13.43l3-17H99.81l1.42-8.07h6.34l2-11.53h12.54l-2,11.53h7.75Z" transform="translate(-99.81 -239.87)"/><path d="M136.59,326.92c-.71,5.28,1.72,8.66,7,8.66a9,9,0,0,0,7.9-4.18h11.73C159.33,340.2,150.54,344,142,344c-12.48,0-19.64-7.49-17.39-20.26,2.06-11.67,12.9-20,24.2-20,13.72,0,18.77,10.27,15.9,23.19Zm16.8-7c.54-4.33-1.88-7.78-6.08-7.78-4.43,0-7.85,3.08-9.49,7.78Z" transform="translate(-99.81 -239.87)"/><path d="M193.66,318.77c.57-3.23-2-5.5-5.15-5.5-7,0-9.17,5.94-10.1,11.23-.87,4.92.38,10,5.69,10,4.43,0,7-2.42,8.31-6.53h12.18c-3,10.27-11.84,16.07-22.1,16.07-11.51,0-18.69-7.78-16.62-19.52,2.13-12.11,11.41-20.77,23.73-20.77,9.59,0,17,5.06,16.24,15Z" transform="translate(-99.81 -239.87)"/><path d="M213.77,290.52h12.54L222.87,310H223c2.68-3.89,8.2-6.31,12.77-6.31,12.77,0,12.17,9.24,11.2,14.75l-4.31,24.44H230.13l3.25-18.42.68-3.82C234.7,317,234,314,229,314c-4.72,0-7.5,4-8.22,8.15l-3.67,20.77H204.53Z" transform="translate(-99.81 -239.87)"/><path d="M254,304.83h12.18L265.3,310h.15a17.77,17.77,0,0,1,13.14-6.31c12.76,0,12.17,9.24,11.2,14.75l-4.31,24.44H272.93l3.25-18.42.67-3.82c.65-3.67-.07-6.68-5.09-6.68-4.72,0-7.5,4-8.23,8.15l-3.66,20.77H247.33Z" transform="translate(-99.81 -239.87)"/><path d="M315.34,303.73c11.88,0,18.67,8.73,16.66,20.18A24.22,24.22,0,0,1,308.23,344c-11.88,0-18.62-8.66-16.6-20.11A24.22,24.22,0,0,1,315.34,303.73Zm-5.43,30.75c5.91,0,8.67-5.65,9.54-10.57s.11-10.64-5.8-10.64-8.62,5.8-9.47,10.64S304.08,334.48,309.91,334.48Z" transform="translate(-99.81 -239.87)"/><path d="M341.2,290.52h12.55l-9.24,52.4H332Z" transform="translate(-99.81 -239.87)"/><path d="M374.88,303.73c11.88,0,18.68,8.73,16.66,20.18A24.21,24.21,0,0,1,367.78,344c-11.88,0-18.62-8.66-16.6-20.11A24.21,24.21,0,0,1,374.88,303.73Zm-5.42,30.75c5.9,0,8.67-5.65,9.54-10.57s.1-10.64-5.8-10.64-8.62,5.8-9.48,10.64S363.63,334.48,369.46,334.48Z" transform="translate(-99.81 -239.87)"/><path d="M428.92,338.3c-1.08,6.16-4.35,18-22.28,18-8.85,0-17.06-2-16.67-12.19h12.55a3.54,3.54,0,0,0,1.56,3.31,9.7,9.7,0,0,0,4.43.8c6,0,7.3-4.18,8.13-8.88l.63-3.59h-.14A14.74,14.74,0,0,1,406,341.3c-11.58,0-15.37-8.21-13.48-18.93,1.78-10.13,9.26-18.64,20.11-18.64,4.65,0,7.69,2,9.22,5.87H422l.84-4.77h12Zm-15-25c-5.53,0-8.16,4.84-9,9.54-.79,4.48.56,8.95,5.66,8.95,5.31,0,8.33-4.18,9.16-8.88C420.63,318,419.46,313.27,413.93,313.27Z" transform="translate(-99.81 -239.87)"/><path d="M439.62,304.83h12.55l-6.72,38.09H432.9ZM453,300.06H440.46l1.69-9.54h12.54Z" transform="translate(-99.81 -239.87)"/><path d="M464.13,326.92c-.71,5.28,1.72,8.66,7,8.66a9,9,0,0,0,7.89-4.18h11.73c-3.91,8.8-12.7,12.62-21.26,12.62-12.47,0-19.64-7.49-17.38-20.26,2.05-11.67,12.9-20,24.19-20,13.72,0,18.78,10.27,15.91,23.19Zm16.8-7c.54-4.33-1.87-7.78-6.08-7.78-4.43,0-7.85,3.08-9.49,7.78Z" transform="translate(-99.81 -239.87)"/><rect class="cls-1" x="8.43" y="14.06" width="9.56" height="9.56"/><rect class="cls-2" x="8.43" y="27.01" width="9.56" height="9.56"/><rect class="cls-3" x="22.13" y="14.06" width="9.56" height="9.56"/><rect class="cls-4" x="22.13" y="27.01" width="9.56" height="9.56"/><rect class="cls-5" x="35.84" y="14.06" width="9.56" height="9.56"/><rect class="cls-6" x="49.54" y="14.06" width="9.56" height="9.56"/><rect class="cls-7" x="49.54" y="27.01" width="9.56" height="9.56"/><rect class="cls-8" x="63.25" y="27.01" width="9.56" height="9.56"/><rect class="cls-9" x="76.95" y="14.06" width="9.56" height="9.56"/><rect class="cls-10" x="76.95" y="27.01" width="9.56" height="9.56"/><rect class="cls-11" x="90.66" y="14.06" width="9.56" height="9.56"/><rect class="cls-12" x="104.36" y="14.06" width="9.56" height="9.56"/></svg>